<?xml version="1.0" encoding="iso-8859-1"?>
<!DOCTYPE svg PUBLIC "-//W3C//DTD SVG 1.1//EN" "http://www.w3.org/Graphics/SVG/1.1/DTD/svg11.dtd">
<svg xmlns="http://www.w3.org/2000/svg" xmlns:xlink="http://www.w3.org/1999/xlink" version="1.1" viewBox="0 0 297 297" enable-background="new 0 0 297 297" width="512px" height="512px">
  <g>
    <path d="m77.989,208.813c-15.316,0-27.777,12.46-27.777,27.776 0,15.317 12.461,27.777 27.777,27.777s27.777-12.46 27.777-27.777c0.001-15.316-12.46-27.776-27.777-27.776z" fill="#FFFFFF"/>
    <path d="m219.011,208.813c-15.316,0-27.777,12.46-27.777,27.776 0,15.317 12.461,27.777 27.777,27.777s27.777-12.46 27.777-27.777c5.68434e-14-15.316-12.461-27.776-27.777-27.776z" fill="#FFFFFF"/>
    <path d="m130.023,86.759c0.189,0.123 0.434,0.13 0.641-0.006 11.801-7.621 31.787-24.038 31.787-37.18 0-9.34-7.342-16.939-16.365-16.939-3.943,0-7.756,1.481-10.734,4.171l-5.013,4.526-5.012-4.526c-2.979-2.689-6.791-4.171-10.734-4.171-9.023,0-16.365,7.601-16.365,16.942-0.001,13.14 19.985,29.556 31.795,37.183z" fill="#FFFFFF"/>
    <path d="m260.677,158.601h-16.367l-28.546-59.54c-4.189-8.42-14.058-14.532-23.463-14.532h-34.525c-7.475,7.013-15.123,12.286-19.006,14.795-2.53,1.629-5.443,2.488-8.432,2.488-2.987,0-5.9-0.859-8.423-2.483-3.887-2.511-11.537-7.786-19.014-14.8h-32.924c-10.242,0-19.83,7.495-22.304,17.436l-10.55,39.009c-20.029-0.001-37.123,16.293-37.123,36.322v30.448c0,19.895 16.078,36.097 35.922,36.314-0.43-2.427-0.666-4.92-0.666-7.469 0-23.563 19.17-42.733 42.733-42.733 23.563,0 42.733,19.171 42.733,42.733 0,2.553-0.237,5.049-0.668,7.479h56.892c-0.432-2.43-0.669-4.926-0.669-7.479 0-23.563 19.171-42.733 42.733-42.733 23.564,0 42.734,19.171 42.734,42.733 0,2.549-0.237,5.042-0.667,7.469 19.845-0.217 35.923-16.419 35.923-36.314v-12.82c0-20.029-16.294-36.323-36.323-36.323zm-140.489-3.206h-63.788l11.996-48.234c0.177-0.476 1.116-1.21 1.58-1.266h50.212v49.5zm21.368,0v-49.5h50.745c1.232,0 3.784,1.58 4.333,2.684l23.29,46.816h-78.368z" fill="#FFFFFF"/>
  </g>
</svg>
