<?xml version="1.0" encoding="iso-8859-1"?>
<!-- Generator: Adobe Illustrator 19.0.0, SVG Export Plug-In . SVG Version: 6.00 Build 0)  -->
<svg xmlns="http://www.w3.org/2000/svg" xmlns:xlink="http://www.w3.org/1999/xlink" version="1.1" id="Capa_1" x="0px" y="0px" viewBox="0 0 60 60" style="enable-background:new 0 0 60 60;" xml:space="preserve" width="512px" height="512px">
<g>
	<g>
		<g>
			<path d="M30,0C13.458,0,0,13.458,0,30s13.458,30,30,30s30-13.458,30-30S46.542,0,30,0z M37.289,50.753     C37.157,49.14,37.137,47.12,37.483,45H22.764c0.352,2.152,0.324,4.202,0.185,5.834c-8.574-2.91-14.787-10.967-14.94-20.476     c1.068,0.208,2.235,0.54,3.495,1.097l11.089-14.169c-5.198,0.417-9.054,1.243-11.887,2.155C14.449,12.629,21.693,8,30,8     c8.269,0,15.483,4.587,19.241,11.348c-2.768-0.862-6.5-1.644-11.472-2.052l10.875,14.273c1.23-0.549,2.359-0.897,3.344-1.12     C51.799,39.831,45.713,47.786,37.289,50.753z" fill="#FFFFFF"/>
			<path d="M30.123,16.997c-1.726,0-3.336,0.043-4.855,0.116L13.321,32.38c1.844,1.064,3.812,2.585,5.822,4.758     c1.624,1.756,2.602,3.804,3.178,5.862h15.606c0.576-2.058,1.553-4.107,3.177-5.862c1.957-2.115,3.912-3.601,5.729-4.645     l-11.71-15.37C33.561,17.044,31.905,16.997,30.123,16.997z" fill="#FFFFFF"/>
		</g>
	</g>
</g>
<g>
</g>
<g>
</g>
<g>
</g>
<g>
</g>
<g>
</g>
<g>
</g>
<g>
</g>
<g>
</g>
<g>
</g>
<g>
</g>
<g>
</g>
<g>
</g>
<g>
</g>
<g>
</g>
<g>
</g>
</svg>
